<mxfile host="app.diagrams.net" agent="Mozilla/5.0 (Windows NT 10.0; Win64; x64) AppleWebKit/537.36 (KHTML, like Gecko) Chrome/139.0.0.0 Safari/537.36" version="27.1.6">
  <diagram name="第 1 页" id="eMFeoTP_9UUyZn8uqYhF">
    <mxGraphModel dx="2040" dy="730" grid="1" gridSize="10" guides="1" tooltips="1" connect="1" arrows="1" fold="1" page="1" pageScale="1" pageWidth="827" pageHeight="1169" math="0" shadow="0">
      <root>
        <mxCell id="0" />
        <mxCell id="1" parent="0" />
        <mxCell id="Daa2gUxjf4LC8xl4a2z6-1" value="springboot启动流程分析" style="rounded=1;whiteSpace=wrap;html=1;fillColor=#fff2cc;strokeColor=#d6b656;sketch=1;curveFitting=1;jiggle=2;shadow=0;glass=0;" vertex="1" parent="1">
          <mxGeometry x="40" y="40" width="150" height="40" as="geometry" />
        </mxCell>
        <mxCell id="Daa2gUxjf4LC8xl4a2z6-2" value="" style="rounded=0;whiteSpace=wrap;html=1;" vertex="1" parent="1">
          <mxGeometry x="-250" y="1100" width="70" height="50" as="geometry" />
        </mxCell>
        <mxCell id="Daa2gUxjf4LC8xl4a2z6-6" value="" style="edgeStyle=orthogonalEdgeStyle;rounded=0;orthogonalLoop=1;jettySize=auto;html=1;" edge="1" parent="1" source="Daa2gUxjf4LC8xl4a2z6-4" target="Daa2gUxjf4LC8xl4a2z6-5">
          <mxGeometry relative="1" as="geometry" />
        </mxCell>
        <mxCell id="Daa2gUxjf4LC8xl4a2z6-4" value="SpringApplication.run()" style="strokeWidth=1;html=1;shape=mxgraph.flowchart.start_2;whiteSpace=wrap;fillColor=#dae8fc;strokeColor=#6c8ebf;sketch=1;curveFitting=1;jiggle=2;" vertex="1" parent="1">
          <mxGeometry y="285" width="150" height="50" as="geometry" />
        </mxCell>
        <mxCell id="Daa2gUxjf4LC8xl4a2z6-5" value="run()方法" style="whiteSpace=wrap;html=1;fillColor=#dae8fc;strokeColor=#6c8ebf;strokeWidth=1;sketch=1;curveFitting=1;jiggle=2;" vertex="1" parent="1">
          <mxGeometry x="190" y="287.5" width="80" height="45" as="geometry" />
        </mxCell>
      </root>
    </mxGraphModel>
  </diagram>
</mxfile>
